<svg width="137" height="31" viewBox="0 0 137 31" fill="none" xmlns="http://www.w3.org/2000/svg">
<path d="M13.96 8.16031C16.6267 8.16031 18.7733 8.96031 20.4 10.5603C22.0533 12.1603 22.88 14.5336 22.88 17.6803V30.0003H16.64V18.6403C16.64 16.9336 16.2667 15.667 15.52 14.8403C14.7733 13.987 13.6933 13.5603 12.28 13.5603C10.7067 13.5603 9.45334 14.0536 8.52001 15.0403C7.58667 16.0003 7.12001 17.4403 7.12001 19.3603V30.0003H0.880005V0.320312H7.12001V10.7203C7.94667 9.89365 8.94667 9.26698 10.12 8.84031C11.2933 8.38698 12.5733 8.16031 13.96 8.16031Z" fill="black"/>
<path d="M44.4106 25.3203C45.5306 25.3203 46.5173 25.1603 47.3706 24.8403C48.2506 24.4936 49.064 23.9603 49.8106 23.2403L53.1306 26.8403C51.104 29.1603 48.144 30.3203 44.2506 30.3203C41.824 30.3203 39.6773 29.8536 37.8106 28.9203C35.944 27.9603 34.504 26.6403 33.4906 24.9603C32.4773 23.2803 31.9706 21.3736 31.9706 19.2403C31.9706 17.1336 32.464 15.2403 33.4506 13.5603C34.464 11.8536 35.8373 10.5336 37.5706 9.60031C39.3306 8.64031 41.304 8.16031 43.4906 8.16031C45.544 8.16031 47.4106 8.60031 49.0906 9.48031C50.7706 10.3336 52.104 11.587 53.0906 13.2403C54.104 14.867 54.6106 16.8003 54.6106 19.0403L38.6906 22.1203C39.144 23.187 39.8506 23.987 40.8106 24.5203C41.7973 25.0536 42.9973 25.3203 44.4106 25.3203ZM43.4906 12.8803C41.9173 12.8803 40.6373 13.387 39.6506 14.4003C38.664 15.4136 38.144 16.8136 38.0906 18.6003L48.5706 16.5603C48.2773 15.4403 47.6773 14.547 46.7706 13.8803C45.864 13.2136 44.7706 12.8803 43.4906 12.8803Z" fill="black"/>
<path d="M71.325 30.3203C68.8983 30.3203 67.005 29.6803 65.645 28.4003C64.285 27.0936 63.605 25.2536 63.605 22.8803V0.320312H69.845V22.5203C69.845 23.427 70.0717 24.1336 70.525 24.6403C71.005 25.1203 71.6717 25.3603 72.525 25.3603C72.845 25.3603 73.165 25.3203 73.485 25.2403C73.8317 25.1603 74.0983 25.067 74.285 24.9603L74.565 29.8003C73.525 30.147 72.445 30.3203 71.325 30.3203Z" fill="black"/>
<path d="M103.878 8.48031V30.0003H97.9178V27.5203C96.3711 29.387 94.1312 30.3203 91.1978 30.3203C89.1712 30.3203 87.3312 29.867 85.6778 28.9603C84.0512 28.0536 82.7712 26.7603 81.8378 25.0803C80.9045 23.4003 80.4378 21.4536 80.4378 19.2403C80.4378 17.027 80.9045 15.0803 81.8378 13.4003C82.7712 11.7203 84.0512 10.427 85.6778 9.52031C87.3312 8.61365 89.1712 8.16031 91.1978 8.16031C93.9445 8.16031 96.0912 9.02698 97.6378 10.7603V8.48031H103.878ZM92.2778 25.2003C93.8512 25.2003 95.1578 24.667 96.1978 23.6003C97.2378 22.507 97.7578 21.0536 97.7578 19.2403C97.7578 17.427 97.2378 15.987 96.1978 14.9203C95.1578 13.827 93.8512 13.2803 92.2778 13.2803C90.6778 13.2803 89.3578 13.827 88.3178 14.9203C87.2778 15.987 86.7578 17.427 86.7578 19.2403C86.7578 21.0536 87.2778 22.507 88.3178 23.6003C89.3578 24.667 90.6778 25.2003 92.2778 25.2003Z" fill="black"/>
<path d="M136.135 8.48031V30.0003H130.215V27.4403C129.388 28.3736 128.402 29.0936 127.255 29.6003C126.108 30.0803 124.868 30.3203 123.535 30.3203C120.708 30.3203 118.468 29.507 116.815 27.8803C115.162 26.2536 114.335 23.8403 114.335 20.6403V8.48031H120.575V19.7203C120.575 23.187 122.028 24.9203 124.935 24.9203C126.428 24.9203 127.628 24.4403 128.535 23.4803C129.442 22.4936 129.895 21.0403 129.895 19.1203V8.48031H136.135Z" fill="black"/>
</svg>
