<svg width="413" height="49" viewBox="0 0 413 49" fill="none" xmlns="http://www.w3.org/2000/svg">
<path d="M38.676 5.3V48H30.746V29.7H8.664V48H0.734V5.3H8.664V22.929H30.746V5.3H38.676ZM60.9148 41.961C64.4528 41.961 67.4011 40.7817 69.7598 38.423L73.7858 43.12C72.3625 44.8687 70.5325 46.1903 68.2958 47.085C66.0591 47.9797 63.5378 48.427 60.7318 48.427C57.1531 48.427 54.0015 47.7153 51.2768 46.292C48.5521 44.8687 46.4375 42.8963 44.9328 40.375C43.4688 37.813 42.7368 34.9257 42.7368 31.713C42.7368 28.541 43.4485 25.6943 44.8718 23.173C46.3358 20.611 48.3285 18.6183 50.8498 17.195C53.4118 15.7717 56.2991 15.06 59.5118 15.06C62.5618 15.06 65.3271 15.731 67.8078 17.073C70.3291 18.3743 72.3218 20.2653 73.7858 22.746C75.2498 25.186 75.9818 28.053 75.9818 31.347L51.0328 36.227C51.8055 38.0977 53.0458 39.521 54.7538 40.497C56.4618 41.473 58.5155 41.961 60.9148 41.961ZM59.5118 21.16C56.7058 21.16 54.4285 22.075 52.6798 23.905C50.9718 25.735 50.1178 28.1953 50.1178 31.286V31.347L68.5398 27.809C68.0111 25.8163 66.9335 24.21 65.3068 22.99C63.7208 21.77 61.7891 21.16 59.5118 21.16ZM90.0785 48.427C86.7032 48.427 84.0598 47.512 82.1485 45.682C80.2778 43.8113 79.3425 41.1883 79.3425 37.813V2.738H86.9675V37.264C86.9675 40.5173 88.4925 42.144 91.5425 42.144C92.5592 42.144 93.4742 41.9407 94.2875 41.534L94.6535 47.634C93.2302 48.1627 91.7052 48.427 90.0785 48.427ZM127.116 15.426V48H119.857V43.791C118.596 45.3363 117.031 46.4953 115.16 47.268C113.33 48.0407 111.297 48.427 109.06 48.427C105.888 48.427 103.041 47.7357 100.52 46.353C98.0393 44.9703 96.0873 43.0183 94.664 40.497C93.2813 37.9757 92.59 35.0477 92.59 31.713C92.59 28.3783 93.2813 25.4707 94.664 22.99C96.0873 20.4687 98.0393 18.5167 100.52 17.134C103.041 15.7513 105.888 15.06 109.06 15.06C111.175 15.06 113.106 15.426 114.855 16.158C116.644 16.89 118.19 17.9677 119.491 19.391V15.426H127.116ZM109.914 41.9C112.72 41.9 115.038 40.9647 116.868 39.094C118.698 37.2233 119.613 34.763 119.613 31.713C119.613 28.663 118.698 26.2027 116.868 24.332C115.038 22.4613 112.72 21.526 109.914 21.526C107.108 21.526 104.79 22.4613 102.96 24.332C101.171 26.2027 100.276 28.663 100.276 31.713C100.276 34.763 101.171 37.2233 102.96 39.094C104.79 40.9647 107.108 41.9 109.914 41.9ZM164.664 15.426V48H157.405V43.852C156.185 45.316 154.66 46.4547 152.83 47.268C151 48.0407 149.028 48.427 146.913 48.427C142.562 48.427 139.126 47.2273 136.604 44.828C134.124 42.388 132.883 38.789 132.883 34.031V15.426H140.508V32.994C140.508 35.922 141.159 38.118 142.46 39.582C143.802 41.0053 145.693 41.717 148.133 41.717C150.858 41.717 153.013 40.8833 154.599 39.216C156.226 37.508 157.039 35.068 157.039 31.896V15.426H164.664ZM204.072 48.61C199.762 48.61 195.858 47.6747 192.36 45.804C188.904 43.8927 186.179 41.2697 184.186 37.935C182.234 34.6003 181.258 30.8387 181.258 26.65C181.258 22.4613 182.255 18.6997 184.247 15.365C186.24 12.0303 188.965 9.42766 192.421 7.557C195.919 5.64566 199.823 4.69 204.133 4.69C207.631 4.69 210.823 5.3 213.71 6.52C216.598 7.74 219.038 9.509 221.03 11.827L215.906 16.646C212.816 13.3113 209.013 11.644 204.499 11.644C201.571 11.644 198.948 12.2947 196.63 13.596C194.312 14.8567 192.503 16.6257 191.201 18.903C189.9 21.1803 189.249 23.7627 189.249 26.65C189.249 29.5373 189.9 32.1197 191.201 34.397C192.503 36.6743 194.312 38.4637 196.63 39.765C198.948 41.0257 201.571 41.656 204.499 41.656C209.013 41.656 212.816 39.9683 215.906 36.593L221.03 41.473C219.038 43.791 216.577 45.56 213.649 46.78C210.762 48 207.57 48.61 204.072 48.61ZM231.191 20.184C233.387 16.768 237.25 15.06 242.781 15.06V22.319C242.13 22.197 241.54 22.136 241.012 22.136C238.043 22.136 235.725 23.0103 234.058 24.759C232.39 26.467 231.557 28.9477 231.557 32.201V48H223.932V15.426H231.191V20.184ZM260.48 41.961C264.018 41.961 266.966 40.7817 269.325 38.423L273.351 43.12C271.928 44.8687 270.098 46.1903 267.861 47.085C265.624 47.9797 263.103 48.427 260.297 48.427C256.718 48.427 253.567 47.7153 250.842 46.292C248.117 44.8687 246.003 42.8963 244.498 40.375C243.034 37.813 242.302 34.9257 242.302 31.713C242.302 28.541 243.014 25.6943 244.437 23.173C245.901 20.611 247.894 18.6183 250.415 17.195C252.977 15.7717 255.864 15.06 259.077 15.06C262.127 15.06 264.892 15.731 267.373 17.073C269.894 18.3743 271.887 20.2653 273.351 22.746C274.815 25.186 275.547 28.053 275.547 31.347L250.598 36.227C251.371 38.0977 252.611 39.521 254.319 40.497C256.027 41.473 258.081 41.961 260.48 41.961ZM259.077 21.16C256.271 21.16 253.994 22.075 252.245 23.905C250.537 25.735 249.683 28.1953 249.683 31.286V31.347L268.105 27.809C267.576 25.8163 266.499 24.21 264.872 22.99C263.286 21.77 261.354 21.16 259.077 21.16ZM310.75 15.426V48H303.491V43.791C302.23 45.3363 300.664 46.4953 298.794 47.268C296.964 48.0407 294.93 48.427 292.694 48.427C289.522 48.427 286.675 47.7357 284.154 46.353C281.673 44.9703 279.721 43.0183 278.298 40.497C276.915 37.9757 276.224 35.0477 276.224 31.713C276.224 28.3783 276.915 25.4707 278.298 22.99C279.721 20.4687 281.673 18.5167 284.154 17.134C286.675 15.7513 289.522 15.06 292.694 15.06C294.808 15.06 296.74 15.426 298.489 16.158C300.278 16.89 301.823 17.9677 303.125 19.391V15.426H310.75ZM293.548 41.9C296.354 41.9 298.672 40.9647 300.502 39.094C302.332 37.2233 303.247 34.763 303.247 31.713C303.247 28.663 302.332 26.2027 300.502 24.332C298.672 22.4613 296.354 21.526 293.548 21.526C290.742 21.526 288.424 22.4613 286.594 24.332C284.804 26.2027 283.91 28.663 283.91 31.713C283.91 34.763 284.804 37.2233 286.594 39.094C288.424 40.9647 290.742 41.9 293.548 41.9ZM335.061 46.231C334.167 46.963 333.069 47.512 331.767 47.878C330.507 48.244 329.165 48.427 327.741 48.427C324.163 48.427 321.397 47.4917 319.445 45.621C317.493 43.7503 316.517 41.0257 316.517 37.447V8.228H324.142V15.67H332.865V21.77H324.142V37.264C324.142 38.85 324.529 40.07 325.301 40.924C326.115 41.7373 327.233 42.144 328.656 42.144C330.364 42.144 331.788 41.6967 332.926 40.802L335.061 46.231ZM337.399 15.426H345.024V48H337.399V15.426ZM341.242 10.058C339.859 10.058 338.7 9.631 337.765 8.777C336.829 7.88233 336.362 6.78433 336.362 5.483C336.362 4.18166 336.829 3.104 337.765 2.25C338.7 1.35533 339.859 0.907999 341.242 0.907999C342.624 0.907999 343.783 1.335 344.719 2.189C345.654 3.00233 346.122 4.03933 346.122 5.3C346.122 6.642 345.654 7.78066 344.719 8.716C343.824 9.61066 342.665 10.058 341.242 10.058ZM381.567 15.426L367.598 48H359.729L345.76 15.426H353.69L363.816 39.582L374.247 15.426H381.567ZM396.968 41.961C400.506 41.961 403.454 40.7817 405.813 38.423L409.839 43.12C408.415 44.8687 406.585 46.1903 404.349 47.085C402.112 47.9797 399.591 48.427 396.785 48.427C393.206 48.427 390.054 47.7153 387.33 46.292C384.605 44.8687 382.49 42.8963 380.986 40.375C379.522 37.813 378.79 34.9257 378.79 31.713C378.79 28.541 379.501 25.6943 380.925 23.173C382.389 20.611 384.381 18.6183 386.903 17.195C389.465 15.7717 392.352 15.06 395.565 15.06C398.615 15.06 401.38 15.731 403.861 17.073C406.382 18.3743 408.375 20.2653 409.839 22.746C411.303 25.186 412.035 28.053 412.035 31.347L387.086 36.227C387.858 38.0977 389.099 39.521 390.807 40.497C392.515 41.473 394.568 41.961 396.968 41.961ZM395.565 21.16C392.759 21.16 390.481 22.075 388.733 23.905C387.025 25.735 386.171 28.1953 386.171 31.286V31.347L404.593 27.809C404.064 25.8163 402.986 24.21 401.36 22.99C399.774 21.77 397.842 21.16 395.565 21.16Z" fill="#FEFEFE"/>
</svg>
