<svg width="312" height="36" viewBox="0 0 312 36" fill="none" xmlns="http://www.w3.org/2000/svg">
<path d="M28.3847 3.339V35H22.5048V21.431H6.13152V35H0.25162V3.339H6.13152V16.4105H22.5048V3.339H28.3847ZM45.3265 30.5222C47.9498 30.5222 50.1359 29.6478 51.8848 27.8989L54.87 31.3816C53.8147 32.6782 52.4578 33.6582 50.7993 34.3215C49.1409 34.9849 47.2714 35.3166 45.1908 35.3166C42.5373 35.3166 40.2004 34.7889 38.1802 33.7336C36.1599 32.6782 34.5919 31.2158 33.4762 29.3463C32.3907 27.4466 31.848 25.3057 31.848 22.9236C31.848 20.5716 32.3756 18.4609 33.431 16.5914C34.5165 14.6917 35.994 13.2142 37.8635 12.1589C39.7632 11.1035 41.9041 10.5758 44.2862 10.5758C46.5477 10.5758 48.5981 11.0733 50.4375 12.0684C52.307 13.0333 53.7845 14.4354 54.87 16.2748C55.9555 18.084 56.4983 20.2098 56.4983 22.6522L37.9992 26.2706C38.5721 27.6577 39.4918 28.713 40.7583 29.4367C42.0247 30.1604 43.5474 30.5222 45.3265 30.5222ZM44.2862 15.0988C42.2056 15.0988 40.517 15.7772 39.2204 17.1341C37.954 18.491 37.3208 20.3153 37.3208 22.607V22.6522L50.9802 20.0289C50.5882 18.5514 49.7892 17.3603 48.5831 16.4557C47.4071 15.5511 45.9748 15.0988 44.2862 15.0988ZM67.403 35.3166C64.9002 35.3166 62.9403 34.6382 61.5231 33.2813C60.136 31.8942 59.4425 29.9493 59.4425 27.4466V1.43934H65.0962V27.0395C65.0962 29.4518 66.227 30.6579 68.4885 30.6579C69.2423 30.6579 69.9208 30.5072 70.5238 30.2056L70.7952 34.7286C69.7399 35.1206 68.6091 35.3166 67.403 35.3166ZM95.3177 10.8472V35H89.9353V31.8791C89.0005 33.025 87.8396 33.8843 86.4526 34.4572C85.0957 35.0302 83.588 35.3166 81.9296 35.3166C79.5776 35.3166 77.4669 34.804 75.5974 33.7788C73.758 32.7536 72.3107 31.3062 71.2553 29.4367C70.2301 27.5672 69.7175 25.3962 69.7175 22.9236C69.7175 20.451 70.2301 18.2951 71.2553 16.4557C72.3107 14.5862 73.758 13.1388 75.5974 12.1136C77.4669 11.0884 79.5776 10.5758 81.9296 10.5758C83.4975 10.5758 84.9298 10.8472 86.2264 11.3899C87.5532 11.9327 88.699 12.7318 89.6639 13.7871V10.8472H95.3177ZM82.5628 30.477C84.6434 30.477 86.3621 29.7835 87.719 28.3964C89.0759 27.0094 89.7544 25.1851 89.7544 22.9236C89.7544 20.6621 89.0759 18.8378 87.719 17.4508C86.3621 16.0637 84.6434 15.3702 82.5628 15.3702C80.4822 15.3702 78.7635 16.0637 77.4066 17.4508C76.0798 18.8378 75.4165 20.6621 75.4165 22.9236C75.4165 25.1851 76.0798 27.0094 77.4066 28.3964C78.7635 29.7835 80.4822 30.477 82.5628 30.477ZM123.611 10.8472V35H118.229V31.9244C117.324 33.0099 116.193 33.8542 114.837 34.4572C113.48 35.0302 112.017 35.3166 110.449 35.3166C107.223 35.3166 104.675 34.4271 102.805 32.648C100.966 30.8388 100.046 28.1703 100.046 24.6423V10.8472H105.7V23.8734C105.7 26.0445 106.183 27.6727 107.147 28.7583C108.142 29.8136 109.545 30.3413 111.354 30.3413C113.374 30.3413 114.972 29.7232 116.148 28.4869C117.354 27.2204 117.957 25.4112 117.957 23.0593V10.8472H123.611ZM153.736 35.4523C150.539 35.4523 147.645 34.7588 145.052 33.3717C142.489 31.9545 140.468 30.0096 138.991 27.537C137.543 25.0645 136.82 22.2753 136.82 19.1695C136.82 16.0637 137.558 13.2745 139.036 10.8019C140.513 8.32938 142.534 6.39956 145.097 5.01251C147.69 3.5953 150.585 2.8867 153.781 2.8867C156.374 2.8867 158.741 3.339 160.882 4.2436C163.023 5.1482 164.832 6.45987 166.31 8.17861L162.51 11.7518C160.219 9.27921 157.399 8.04292 154.052 8.04292C151.881 8.04292 149.936 8.52537 148.218 9.49028C146.499 10.425 145.157 11.7367 144.192 13.4253C143.227 15.1139 142.745 17.0286 142.745 19.1695C142.745 21.3104 143.227 23.2251 144.192 24.9137C145.157 26.6023 146.499 27.929 148.218 28.8939C149.936 29.8287 151.881 30.2961 154.052 30.2961C157.399 30.2961 160.219 29.0447 162.51 26.542L166.31 30.1604C164.832 31.8791 163.008 33.1908 160.837 34.0954C158.696 35 156.329 35.4523 153.736 35.4523ZM174.296 14.3751C175.924 11.8422 178.788 10.5758 182.889 10.5758V15.9582C182.407 15.8677 181.97 15.8225 181.578 15.8225C179.376 15.8225 177.658 16.4708 176.421 17.7674C175.185 19.0338 174.567 20.8732 174.567 23.2854V35H168.913V10.8472H174.296V14.3751ZM196.465 30.5222C199.089 30.5222 201.275 29.6478 203.024 27.8989L206.009 31.3816C204.954 32.6782 203.597 33.6582 201.938 34.3215C200.28 34.9849 198.41 35.3166 196.33 35.3166C193.676 35.3166 191.339 34.7889 189.319 33.7336C187.299 32.6782 185.731 31.2158 184.615 29.3463C183.53 27.4466 182.987 25.3057 182.987 22.9236C182.987 20.5716 183.515 18.4609 184.57 16.5914C185.655 14.6917 187.133 13.2142 189.002 12.1589C190.902 11.1035 193.043 10.5758 195.425 10.5758C197.687 10.5758 199.737 11.0733 201.576 12.0684C203.446 13.0333 204.923 14.4354 206.009 16.2748C207.094 18.084 207.637 20.2098 207.637 22.6522L189.138 26.2706C189.711 27.6577 190.631 28.713 191.897 29.4367C193.164 30.1604 194.686 30.5222 196.465 30.5222ZM195.425 15.0988C193.344 15.0988 191.656 15.7772 190.359 17.1341C189.093 18.491 188.46 20.3153 188.46 22.607V22.6522L202.119 20.0289C201.727 18.5514 200.928 17.3603 199.722 16.4557C198.546 15.5511 197.114 15.0988 195.425 15.0988ZM234.191 10.8472V35H228.809V31.8791C227.874 33.025 226.713 33.8843 225.326 34.4572C223.969 35.0302 222.462 35.3166 220.803 35.3166C218.451 35.3166 216.341 34.804 214.471 33.7788C212.632 32.7536 211.184 31.3062 210.129 29.4367C209.104 27.5672 208.591 25.3962 208.591 22.9236C208.591 20.451 209.104 18.2951 210.129 16.4557C211.184 14.5862 212.632 13.1388 214.471 12.1136C216.341 11.0884 218.451 10.5758 220.803 10.5758C222.371 10.5758 223.804 10.8472 225.1 11.3899C226.427 11.9327 227.573 12.7318 228.538 13.7871V10.8472H234.191ZM221.437 30.477C223.517 30.477 225.236 29.7835 226.593 28.3964C227.95 27.0094 228.628 25.1851 228.628 22.9236C228.628 20.6621 227.95 18.8378 226.593 17.4508C225.236 16.0637 223.517 15.3702 221.437 15.3702C219.356 15.3702 217.637 16.0637 216.28 17.4508C214.954 18.8378 214.29 20.6621 214.29 22.9236C214.29 25.1851 214.954 27.0094 216.28 28.3964C217.637 29.7835 219.356 30.477 221.437 30.477ZM252.67 33.6883C252.007 34.2311 251.192 34.6382 250.228 34.9095C249.293 35.1809 248.298 35.3166 247.242 35.3166C244.589 35.3166 242.538 34.6231 241.091 33.236C239.644 31.849 238.92 29.8287 238.92 27.1752V5.51004H244.574V11.0281H251.042V15.5511H244.574V27.0395C244.574 28.2155 244.86 29.1201 245.433 29.7533C246.036 30.3564 246.865 30.6579 247.921 30.6579C249.187 30.6579 250.243 30.3262 251.087 29.6629L252.67 33.6883ZM254.856 10.8472H260.509V35H254.856V10.8472ZM257.705 6.86694C256.68 6.86694 255.82 6.55033 255.127 5.91711C254.433 5.25374 254.087 4.4396 254.087 3.47469C254.087 2.50978 254.433 1.71072 255.127 1.0775C255.82 0.414126 256.68 0.0824397 257.705 0.0824397C258.73 0.0824397 259.59 0.399049 260.283 1.03227C260.977 1.63534 261.323 2.40425 261.323 3.339C261.323 4.33406 260.977 5.17835 260.283 5.87188C259.62 6.53525 258.76 6.86694 257.705 6.86694ZM288.057 10.8472L277.699 35H271.865L261.507 10.8472H267.387L274.895 28.7583L282.63 10.8472H288.057ZM299.929 30.5222C302.552 30.5222 304.738 29.6478 306.487 27.8989L309.473 31.3816C308.417 32.6782 307.06 33.6582 305.402 34.3215C303.743 34.9849 301.874 35.3166 299.793 35.3166C297.14 35.3166 294.803 34.7889 292.783 33.7336C290.762 32.6782 289.194 31.2158 288.079 29.3463C286.993 27.4466 286.45 25.3057 286.45 22.9236C286.45 20.5716 286.978 18.4609 288.034 16.5914C289.119 14.6917 290.597 13.2142 292.466 12.1589C294.366 11.1035 296.507 10.5758 298.889 10.5758C301.15 10.5758 303.201 11.0733 305.04 12.0684C306.909 13.0333 308.387 14.4354 309.473 16.2748C310.558 18.084 311.101 20.2098 311.101 22.6522L292.602 26.2706C293.175 27.6577 294.094 28.713 295.361 29.4367C296.627 30.1604 298.15 30.5222 299.929 30.5222ZM298.889 15.0988C296.808 15.0988 295.12 15.7772 293.823 17.1341C292.557 18.491 291.923 20.3153 291.923 22.607V22.6522L305.583 20.0289C305.191 18.5514 304.392 17.3603 303.186 16.4557C302.01 15.5511 300.577 15.0988 298.889 15.0988Z" fill="#212121"/>
</svg>
